# xmcd CD database file
#
# Track frame offsets:
#	150
#	12712
#	30807
#	50012
#	64210
#	85902
#	105725
#	124882
#	144672
#	173222
#	190600
#	216122
#
# Disc length: 3248 seconds
#
# Revision: 0
# Processed by: cddbd v1.5.2PL0 Copyright (c) Steve Scherf et al.
# Submitted via: CDex 1.70beta2
#
DISCID=a80cae0c
DTITLE=憂歌団 - 夢・憂歌
DYEAR=1900
DGENRE=Blues
TTITLE0=ボニータ
TTITLE1=夢
TTITLE2=ヘビー・スモーカー
TTITLE3=ボクサー
TTITLE4=SLOW TRAIN BLUES
TTITLE5=ALL OF ME
TTITLE6=王様
TTITLE7=16t
TTITLE8=けだるい二人(TWO SLEEPY PEOPLE)
TTITLE9=スティーリン(STEALIN')
TTITLE10=GOOD NIGHT SWEETHART
TTITLE11=Whoo Baby
EXTD=
EXTT0=
EXTT1=
EXTT2=
EXTT3=
EXTT4=
EXTT5=
EXTT6=
EXTT7=
EXTT8=
EXTT9=
EXTT10=
EXTT11=
PLAYORDER=
